<svg width="22" height="18" viewBox="0 0 22 18" fill="none" xmlns="http://www.w3.org/2000/svg">
<path d="M5.67962 1.32038L6.29289 0.707107C6.68342 0.316583 7.31658 0.316582 7.70711 0.707106L10.2929 3.29289C10.6834 3.68342 10.6834 4.31658 10.2929 4.70711L8.50048 6.49952C8.2016 6.7984 8.1275 7.255 8.31653 7.63307C9.40929 9.81858 11.1814 11.5907 13.3669 12.6835C13.745 12.8725 14.2016 12.7984 14.5005 12.4995L16.2929 10.7071C16.6834 10.3166 17.3166 10.3166 17.7071 10.7071L20.2929 13.2929C20.6834 13.6834 20.6834 14.3166 20.2929 14.7071L19.6796 15.3204C17.5683 17.4317 14.2257 17.6693 11.837 15.8777L10.6286 14.9714C8.88504 13.6638 7.33622 12.115 6.02857 10.3714L5.12226 9.16302C3.33072 6.7743 3.56827 3.43173 5.67962 1.32038Z" fill="#F0EBEB"/>
</svg>
