<svg width="26" height="26" viewBox="0 0 26 26" fill="none" xmlns="http://www.w3.org/2000/svg">
<ellipse cx="13" cy="12.8895" rx="13" ry="12.8895" fill="#222222"/>
<path d="M9.66676 24C11.5068 24 13.0001 22.5066 13.0001 20.6666V17.3333H9.66676C7.82675 17.3333 6.33337 18.8266 6.33337 20.6666C6.33337 22.5066 7.82675 24 9.66676 24Z" fill="#0ACF83"/>
<path d="M6.33337 14C6.33337 12.16 7.82675 10.6666 9.66676 10.6666H13.0001V17.3333H9.66676C7.82675 17.3333 6.33337 15.84 6.33337 14Z" fill="#A259FF"/>
<path d="M6.33337 7.33336C6.33337 5.49336 7.82675 4 9.66676 4H13.0001V10.6666H9.66676C7.82675 10.6666 6.33337 9.17336 6.33337 7.33336Z" fill="#F24E1E"/>
<path d="M12.9999 4H16.3333C18.1733 4 19.6666 5.49336 19.6666 7.33336C19.6666 9.17336 18.1733 10.6666 16.3333 10.6666H12.9999V4Z" fill="#FF7262"/>
<path d="M19.6666 14C19.6666 15.84 18.1733 17.3333 16.3333 17.3333C14.4932 17.3333 12.9999 15.84 12.9999 14C12.9999 12.16 14.4932 10.6666 16.3333 10.6666C18.1733 10.6666 19.6666 12.16 19.6666 14Z" fill="#1ABCFE"/>
</svg>
