<svg width="30" height="30" viewBox="0 0 30 30" fill="none" xmlns="http://www.w3.org/2000/svg">
<path fill-rule="evenodd" clip-rule="evenodd" d="M15 30C23.2843 30 30 23.2843 30 15C30 6.71573 23.2843 0 15 0C6.71573 0 0 6.71573 0 15C0 23.2843 6.71573 30 15 30ZM19.0391 6.85938C17.9883 6.8125 17.6719 6.80078 15 6.80078C12.3281 6.80078 12.0117 6.8125 10.9609 6.85938C9.98828 6.90234 9.45703 7.06641 9.10547 7.20312C8.64062 7.38281 8.30859 7.59766 7.95703 7.94922C7.60938 8.29688 7.39062 8.63281 7.21094 9.09766C7.07422 9.44922 6.91016 9.97656 6.86719 10.9531C6.82031 12.0039 6.80859 12.3203 6.80859 14.9922C6.80859 17.6602 6.82031 17.9766 6.86719 19.0313C6.91016 20.0039 7.07422 20.5352 7.21094 20.8867C7.39062 21.3516 7.60547 21.6836 7.95703 22.0352C8.30469 22.3828 8.64062 22.6016 9.10547 22.7813C9.45703 22.918 9.98438 23.082 10.9609 23.125C12.0117 23.1719 12.3281 23.1836 15 23.1836C17.668 23.1836 17.9844 23.1719 19.0391 23.125C20.0117 23.082 20.543 22.918 20.8945 22.7813C21.3594 22.6016 21.6914 22.3867 22.043 22.0352C22.3906 21.6875 22.6094 21.3516 22.7891 20.8867C22.9258 20.5352 23.0898 20.0078 23.1328 19.0313C23.1797 17.9805 23.1914 17.6641 23.1914 14.9922C23.1914 12.3242 23.1797 12.0078 23.1328 10.9531C23.0898 9.98047 22.9258 9.44922 22.7891 9.09766C22.6094 8.63281 22.3945 8.30078 22.043 7.94922C21.6953 7.60156 21.3594 7.38281 20.8945 7.20312C20.543 7.06641 20.0156 6.90234 19.0391 6.85938ZM10.8789 5.05859C11.9453 5.01172 12.2852 5 15 5C17.7148 5 18.0547 5.01172 19.125 5.0625C20.1875 5.10938 20.9141 5.28125 21.5508 5.52734C22.207 5.78125 22.7656 6.125 23.3203 6.67969C23.8789 7.23438 24.2188 7.79297 24.4648 8.45703C24.7109 9.08984 24.8828 9.82031 24.9297 10.8828C24.9766 11.9492 24.9883 12.2891 24.9883 15.0039C24.9883 17.7188 24.9766 18.0586 24.9297 19.125C24.8828 20.1875 24.7109 20.9141 24.4648 21.5508C24.2109 22.207 23.8672 22.7656 23.3125 23.3203C22.7578 23.875 22.1992 24.2188 21.543 24.4727C20.9102 24.7188 20.1797 24.8906 19.1172 24.9375C18.0508 24.9844 17.7109 24.9961 14.9961 24.9961C12.2812 24.9961 11.9414 24.9844 10.875 24.9375C9.8125 24.8906 9.08594 24.7188 8.44922 24.4727C7.79297 24.2188 7.23438 23.875 6.67969 23.3203C6.12109 22.7656 5.78125 22.207 5.52344 21.5469C5.27734 20.9141 5.10547 20.1836 5.05859 19.1211C5.01172 18.0547 5 17.7148 5 15C5 12.2852 5.01172 11.9453 5.05859 10.875C5.10547 9.8125 5.27734 9.08594 5.52344 8.44922C5.78125 7.79297 6.12109 7.23438 6.67969 6.67969C7.23438 6.12109 7.79297 5.78125 8.45312 5.52344C9.08594 5.27734 9.81641 5.10547 10.8789 5.05859ZM9.86328 15C9.86328 12.1641 12.1641 9.86328 15 9.86328C17.8359 9.86328 20.1367 12.1641 20.1367 15C20.1367 17.8359 17.8359 20.1367 15 20.1367C12.1641 20.1367 9.86328 17.8359 9.86328 15ZM11.668 15C11.668 16.8398 13.1602 18.332 15 18.332C16.8398 18.332 18.332 16.8398 18.332 15C18.332 13.1602 16.8398 11.668 15 11.668C13.1602 11.668 11.668 13.1602 11.668 15ZM21.5391 9.66011C21.5391 10.3242 21 10.8593 20.3398 10.8593C19.6758 10.8593 19.1406 10.3203 19.1406 9.66011C19.1406 8.99605 19.6797 8.46089 20.3398 8.46089C21 8.46089 21.5391 8.99996 21.5391 9.66011Z" fill="#F0EBEB"/>
</svg>
