<svg width="30" height="30" viewBox="0 0 30 30" fill="none" xmlns="http://www.w3.org/2000/svg">
<path fill-rule="evenodd" clip-rule="evenodd" d="M30 15C30 6.71573 23.2843 0 15 0C6.71573 0 0 6.71573 0 15C0 23.2843 6.71573 30 15 30C23.2843 30 30 23.2843 30 15ZM4.44727 11.2441V25.5645H8.90039V11.2441H4.44727ZM4.08984 6.71484C4.08984 8.13867 5.24414 9.29297 6.67383 9.29297C8.09766 9.29297 9.25195 8.13281 9.25195 6.71484C9.25195 5.29102 8.09766 4.13672 6.67383 4.13672C5.24414 4.13672 4.08984 5.29102 4.08984 6.71484ZM21.1172 25.5645H25.5645V17.707C25.5645 13.8516 24.7324 10.8867 20.2266 10.8867C18.0645 10.8867 16.6113 12.0762 16.0195 13.2012H15.9609V11.2441H11.6953V25.5645H16.1367V18.4863C16.1367 16.6172 16.4883 14.8066 18.8027 14.8066C21.0879 14.8066 21.1172 16.9453 21.1172 18.6035V25.5645Z" fill="#F0EBEB"/>
</svg>
