<svg width="30" height="30" viewBox="0 0 30 30" fill="none" xmlns="http://www.w3.org/2000/svg">
<path fill-rule="evenodd" clip-rule="evenodd" d="M22 5.75H24.25C25.6307 5.75 26.75 6.86929 26.75 8.25V13.75H19.5V8.25C19.5 6.86929 20.6193 5.75 22 5.75ZM21.7502 3.75682C21.2243 3.75 20.6436 3.75 20 3.75L6.5 3.75C4.61438 3.75 3.67157 3.75 3.08579 4.33579C2.5 4.92157 2.5 5.86438 2.5 7.75L2.5 26.25L6.25 25L10 26.25L13.75 25L17.3765 26.2088L17.5 13.75L17.5 8.25C17.5 5.84854 19.3811 3.88644 21.7502 3.75682ZM5.25 8.75C5.25 8.19771 5.69772 7.75 6.25 7.75H13.75C14.3023 7.75 14.75 8.19771 14.75 8.75C14.75 9.30228 14.3023 9.75 13.75 9.75H6.25C5.69772 9.75 5.25 9.30228 5.25 8.75ZM5.25 13.75C5.25 13.1977 5.69772 12.75 6.25 12.75H8.75C9.30228 12.75 9.75 13.1977 9.75 13.75C9.75 14.3023 9.30228 14.75 8.75 14.75H6.25C5.69772 14.75 5.25 14.3023 5.25 13.75ZM5.25 18.75C5.25 18.1977 5.69772 17.75 6.25 17.75H11.25C11.8023 17.75 12.25 18.1977 12.25 18.75C12.25 19.3023 11.8023 19.75 11.25 19.75H6.25C5.69772 19.75 5.25 19.3023 5.25 18.75Z" fill="white"/>
</svg>
