<svg width="30" height="30" viewBox="0 0 30 30" fill="none" xmlns="http://www.w3.org/2000/svg">
<path fill-rule="evenodd" clip-rule="evenodd" d="M8.68142 15.6223L14.1672 17.682C14.5944 17.8425 15.0655 17.8416 15.4921 17.6795L20.8504 15.6442L20.8504 19.5581C20.8504 19.5618 20.8505 19.5655 20.8505 19.5692C20.8505 20.775 18.1263 21.7525 14.7659 21.7525C11.4056 21.7525 8.68142 20.775 8.68142 19.5692C8.68142 19.5679 8.68141 19.5667 8.68141 19.5655C8.6814 19.563 8.68139 19.5605 8.68142 19.5581V15.6223Z" fill="white"/>
<path d="M25.7964 18.5637C25.9794 18.2276 26.1865 17.7911 26.3617 17.4029C26.4982 17.1007 26.8865 17.0342 27.0535 17.3206C27.3461 17.8221 27.539 18.4204 27.635 18.8192C27.6655 18.9458 27.6386 19.0831 27.5413 19.1697C27.1284 19.5368 26.491 19.4384 25.9959 19.2507C25.7304 19.15 25.6606 18.8131 25.7964 18.5637Z" fill="white"/>
<path fill-rule="evenodd" clip-rule="evenodd" d="M26.7281 17.3732C26.6759 17.3804 26.6116 17.419 26.5753 17.4994C26.3993 17.8893 26.1894 18.3321 26.0022 18.6758C25.9625 18.7486 25.954 18.8338 25.9723 18.9034C25.9897 18.9698 26.0276 19.0121 26.079 19.0316C26.3107 19.1194 26.5652 19.182 26.8012 19.1839C27.0357 19.1858 27.2351 19.1282 27.3855 18.9945C27.4023 18.9796 27.4228 18.9395 27.407 18.874C27.3141 18.4879 27.128 17.9134 26.851 17.4387C26.8175 17.3811 26.7733 17.367 26.7281 17.3732ZM26.6641 16.9088C26.8888 16.8778 27.1224 16.9736 27.2559 17.2025L27.0535 17.3206M26.6641 16.9088C26.4463 16.9389 26.2482 17.0847 26.1481 17.3065L26.6641 16.9088ZM27.2559 17.2025C27.5641 17.7307 27.7637 18.353 27.8628 18.7643C27.908 18.9521 27.8748 19.1867 27.6969 19.3449C27.4344 19.5783 27.1087 19.6551 26.7975 19.6526C26.4878 19.6502 26.1761 19.5697 25.9128 19.4699C25.4729 19.3031 25.4098 18.7834 25.5905 18.4517C25.7693 18.1232 25.9737 17.6929 26.1481 17.3065" fill="white"/>
<path fill-rule="evenodd" clip-rule="evenodd" d="M26.309 16.7834C26.4092 16.7014 26.5568 16.7162 26.6388 16.8163C26.7192 16.9146 26.7605 17.059 26.7864 17.1791C26.8149 17.3116 26.8346 17.4665 26.8481 17.6223C26.8753 17.9346 26.88 18.2725 26.876 18.4895C26.8737 18.6189 26.7669 18.7219 26.6374 18.7195C26.508 18.7172 26.405 18.6104 26.4074 18.481C26.4111 18.2755 26.4065 17.9546 26.3811 17.663C26.3684 17.5167 26.3509 17.3834 26.3281 17.2778C26.3168 17.2251 26.305 17.1833 26.2935 17.1524C26.2827 17.1232 26.2754 17.1127 26.2755 17.1126C26.2755 17.1126 26.2757 17.1128 26.276 17.1132C26.194 17.013 26.2088 16.8653 26.309 16.7834Z" fill="black"/>
<path fill-rule="evenodd" clip-rule="evenodd" d="M26.5956 12.2592C26.7897 12.2592 26.9471 12.4166 26.9471 12.6107V16.504C26.9471 16.6982 26.7897 16.8556 26.5956 16.8556C26.4014 16.8556 26.244 16.6982 26.244 16.504V12.6107C26.244 12.4166 26.4014 12.2592 26.5956 12.2592Z" fill="white"/>
<path d="M27.5632 16.6422C27.5632 17.1766 27.13 17.6098 26.5956 17.6098C26.0612 17.6098 25.6281 17.1766 25.6281 16.6422C25.6281 16.1079 26.0612 15.6747 26.5956 15.6747C27.13 15.6747 27.5632 16.1079 27.5632 16.6422Z" fill="white"/>
<path d="M14.0988 7.75774L2.73867 12.2844C2.52872 12.368 2.5317 12.6663 2.74328 12.7457L14.1359 17.0234C14.5867 17.1927 15.0839 17.1917 15.5341 17.0207L21.5 15L26.7895 12.7454C26.9999 12.6655 27.0029 12.3689 26.7942 12.2848L15.571 7.76068C15.0989 7.57038 14.5716 7.56933 14.0988 7.75774Z" fill="white"/>
<path fill-rule="evenodd" clip-rule="evenodd" d="M23.4412 13.0142C23.4855 13.1358 23.4229 13.2703 23.3013 13.3147L15.2844 16.2404C15.1628 16.2848 15.0282 16.2222 14.9839 16.1006C14.9395 15.979 15.0021 15.8444 15.1237 15.8001L23.1406 12.8743C23.2622 12.83 23.3968 12.8926 23.4412 13.0142Z" fill="black"/>
<path fill-rule="evenodd" clip-rule="evenodd" d="M4.58606 12.4716C4.63063 12.3501 4.76529 12.2877 4.88681 12.3323L7.56613 13.3151C7.68765 13.3597 7.75003 13.4943 7.70545 13.6159C7.66087 13.7374 7.52622 13.7998 7.40469 13.7552L4.72538 12.7723C4.60385 12.7278 4.54148 12.5931 4.58606 12.4716Z" fill="black"/>
</svg>
