<svg width="170" height="170" viewBox="0 0 170 170" fill="none" xmlns="http://www.w3.org/2000/svg">
<circle cx="85" cy="85" r="85" fill="#222222"/>
<g clip-path="url(#clip0_46_415)">
<path d="M74.2794 135.54C82.7335 135.54 89.595 128.679 89.595 120.225V104.909H74.2794C65.8253 104.909 58.9639 111.771 58.9639 120.225C58.9639 128.679 65.8253 135.54 74.2794 135.54Z" fill="#0ACF83"/>
<path d="M58.9639 89.5942C58.9639 81.1402 65.8253 74.2788 74.2794 74.2788H89.595V104.909H74.2794C65.8253 104.91 58.9639 98.0483 58.9639 89.5942Z" fill="#A259FF"/>
<path d="M58.9639 58.9639C58.9639 50.5098 65.8253 43.6484 74.2794 43.6484H89.595V74.2789H74.2794C65.8253 74.2789 58.9639 67.4179 58.9639 58.9639Z" fill="#F24E1E"/>
<path d="M89.5938 43.6484H104.909C113.363 43.6484 120.225 50.5098 120.225 58.9639C120.225 67.4179 113.363 74.2789 104.909 74.2789H89.5938V43.6484Z" fill="#FF7262"/>
<path d="M120.225 89.5942C120.225 98.0483 113.363 104.91 104.909 104.91C96.4552 104.91 89.5938 98.0483 89.5938 89.5942C89.5938 81.1402 96.4552 74.2788 104.909 74.2788C113.363 74.2788 120.225 81.1402 120.225 89.5942Z" fill="#1ABCFE"/>
</g>
<defs>
<clipPath id="clip0_46_415">
<rect width="91.8919" height="91.8919" fill="white" transform="translate(43.6484 43.6484)"/>
</clipPath>
</defs>
</svg>
